<?xml version="1.0" encoding="utf-8"?>
<svg viewBox="133.12 123.64 1733.76 1754.71" xmlns="http://www.w3.org/2000/svg">
  <path fill-rule="evenodd" fill-opacity="1" d="M 704.507812 154.660156 L 1134.101562 304.769531 C 1048.609375 527.28125 937.84375 831.859375 972.121094 831.859375 C 1005.070312 831.859375 1295 979.339844 1515.980469 1094.292969 L 1274.320312 1785.917969 C 1256.179688 1837.839844 1198.859375 1865.476562 1146.929688 1847.335938 L 225.558594 1525.398438 C 173.636719 1507.253906 145.996094 1449.929688 164.140625 1398.007812 L 577.121094 216.078125 C 595.261719 164.160156 652.585938 136.519531 704.507812 154.660156 " style="fill: rgb(185, 185, 185);" transform="matrix(1, 0, 0, 1, -3.552713678800501e-15, 0)"/>
  <path fill-rule="nonzero" fill-opacity="1" d="M 712.878906 130.648438 L 1142.46875 280.75 L 1167.210938 289.390625 L 1157.820312 313.839844 C 1115.449219 424.121094 1066.679688 555.121094 1032.410156 659.628906 C 1004.640625 744.308594 963.042969 806.351562 972.121094 806.351562 C 992.820312 806.351562 1077.300781 844.339844 1184.699219 897.148438 C 1291.980469 949.890625 1419 1015.105469 1527.738281 1071.671875 L 1547.28125 1081.835938 L 1540 1102.664062 L 1298.339844 1794.289062 C 1286.941406 1826.90625 1263.289062 1851.875 1234.359375 1865.820312 C 1205.421875 1879.773438 1171.160156 1882.742188 1138.558594 1871.351562 L 217.1875 1549.414062 C 184.570312 1538.019531 159.601562 1514.363281 145.65625 1485.433594 C 131.699219 1456.492188 128.734375 1422.230469 140.121094 1389.636719 L 551.609375 211.988281 L 553.101562 207.710938 C 564.5 175.089844 588.15625 150.128906 617.085938 136.179688 C 644.679688 122.871094 677.113281 119.558594 708.324219 129.148438 L 708.601562 129.148438 Z M 1101.011719 320.148438 L 700.414062 180.179688 L 696.136719 178.679688 C 676.808594 171.929688 656.445312 173.710938 639.207031 182.019531 C 621.964844 190.328125 607.886719 205.140625 601.140625 224.441406 L 601.136719 224.449219 L 188.15625 1406.378906 C 181.402344 1425.707031 183.1875 1446.070312 191.496094 1463.308594 C 199.8125 1480.558594 214.625 1494.636719 233.929688 1501.378906 L 1155.300781 1823.320312 C 1174.628906 1830.070312 1195 1828.289062 1212.230469 1819.980469 C 1229.480469 1811.664062 1243.558594 1796.851562 1250.300781 1777.546875 L 1484.691406 1106.761719 C 1377.28125 1050.980469 1257.730469 989.660156 1162.378906 942.789062 C 1061.339844 893.109375 984.375 857.371094 972.121094 857.371094 C 928.765625 857.371094 943.566406 767.109375 983.980469 643.878906 C 1015.460938 547.890625 1060.261719 426.800781 1101.011719 320.148438 " style="fill: rgb(241, 245, 249);" transform="matrix(1, 0, 0, 1, -3.552713678800501e-15, 0)"/>
  <path fill-rule="evenodd" fill-opacity="1" d="M 1190.578125 329.839844 L 1530.671875 654.160156 C 1530.671875 654.160156 1238.800781 659.308594 1241.558594 650.230469 C 1244.320312 641.160156 1202.019531 599.070312 1202.019531 599.070312 L 1190.578125 329.839844 " style="fill: rgb(185, 185, 185);" transform="matrix(1, 0, 0, 1, -3.552713678800501e-15, 0)"/>
  <path fill="none" stroke-width="5.6693" stroke-linecap="butt" stroke-linejoin="miter" stroke="rgb(0%, 0%, 0%)" stroke-opacity="1" stroke-miterlimit="22.9256" d="M 11905.78125 16711.601562 L 15306.71875 13468.398438 C 15306.71875 13468.398438 12388.007812 13416.914062 12415.585938 13507.695312 C 12443.203125 13598.398438 12020.195312 14019.296875 12020.195312 14019.296875 Z M 11905.78125 16711.601562 " transform="matrix(0.10000000149011612, 0, 0, -0.10000000149011612, -3.552713678800501e-15, 2001.0000298172235)"/>
  <path fill-rule="evenodd" fill-opacity="1" d="M 491.808594 276.730469 L 1102.808594 276.730469 C 1161.699219 276.410156 1199.128906 307.800781 1196.78125 377.230469 L 1196.78125 561.730469 C 1198.421875 614.550781 1215.410156 646.441406 1285.808594 646.261719 L 1489.808594 646.261719 C 1540.429688 646.011719 1567.191406 672.480469 1567.808594 728.230469 L 1567.808594 1628.730469 C 1567.808594 1683.730469 1522.808594 1728.730469 1467.808594 1728.730469 L 491.808594 1728.730469 C 436.808594 1728.730469 391.808594 1683.730469 391.808594 1628.730469 L 391.808594 376.730469 C 391.808594 321.730469 436.808594 276.730469 491.808594 276.730469 " style="fill: rgb(241, 245, 249);" transform="matrix(1, 0, 0, 1, -3.552713678800501e-15, 0)"/>
  <path fill-rule="nonzero" fill-opacity="1" d="M 491.808594 251.21875 L 1102.808594 251.21875 L 1102.808594 251.320312 C 1105.378906 251.308594 1107.71875 251.328125 1109.820312 251.398438 C 1143.039062 252.53125 1170.800781 262.761719 1190.859375 282.941406 C 1210.800781 303.011719 1222.078125 331.839844 1222.289062 370.089844 C 1222.300781 372.601562 1222.28125 374.988281 1222.210938 377.230469 L 1222.289062 377.230469 L 1222.289062 561.730469 L 1222.210938 561.730469 C 1222.898438 581.941406 1225.96875 597.539062 1234.351562 606.730469 C 1242.710938 615.921875 1258.578125 620.921875 1285.808594 620.851562 L 1285.808594 620.75 L 1489.808594 620.75 L 1489.808594 620.851562 C 1522.261719 620.710938 1547.738281 629.808594 1565.898438 648.609375 C 1583.601562 666.929688 1592.839844 693.28125 1593.21875 728.03125 L 1593.320312 728.230469 L 1593.320312 1628.730469 C 1593.320312 1663.273438 1579.210938 1694.65625 1556.46875 1717.394531 C 1533.738281 1740.128906 1502.351562 1754.242188 1467.808594 1754.242188 L 491.808594 1754.242188 C 457.265625 1754.242188 425.882812 1740.128906 403.144531 1717.394531 C 380.410156 1694.65625 366.296875 1663.273438 366.296875 1628.730469 L 366.296875 376.730469 C 366.296875 342.191406 380.410156 310.800781 403.144531 288.070312 C 425.882812 265.328125 457.265625 251.21875 491.808594 251.21875 Z M 1102.808594 302.238281 L 491.808594 302.238281 C 471.351562 302.238281 452.734375 310.628906 439.222656 324.140625 C 425.710938 337.660156 417.320312 356.269531 417.320312 376.730469 L 417.320312 1628.730469 C 417.320312 1649.1875 425.710938 1667.804688 439.222656 1681.316406 C 452.734375 1694.828125 471.351562 1703.21875 491.808594 1703.21875 L 1467.808594 1703.21875 C 1488.269531 1703.21875 1506.878906 1694.828125 1520.398438 1681.316406 C 1533.910156 1667.804688 1542.300781 1649.1875 1542.300781 1628.730469 L 1542.300781 728.230469 L 1542.390625 728.230469 C 1542.140625 707.339844 1537.679688 692.640625 1529.21875 683.890625 C 1521.210938 675.589844 1508.019531 671.589844 1489.910156 671.679688 L 1489.808594 671.78125 L 1285.808594 671.78125 L 1285.808594 671.679688 C 1242.640625 671.789062 1214.808594 660.929688 1196.679688 641.011719 C 1178.640625 621.210938 1172.371094 594.699219 1171.359375 562.429688 L 1171.261719 561.730469 L 1171.261719 377.230469 L 1171.359375 376.429688 C 1171.441406 374.121094 1171.480469 372.078125 1171.46875 370.289062 C 1171.339844 346.398438 1165.351562 329.449219 1154.78125 318.820312 C 1144.320312 308.300781 1128.320312 302.910156 1108.21875 302.230469 C 1106.261719 302.160156 1104.488281 302.128906 1102.910156 302.140625 L 1102.808594 302.238281 " style="fill: rgb(241, 245, 249);" transform="matrix(1, 0, 0, 1, -3.552713678800501e-15, 0)"/>
  <path fill-rule="nonzero" fill-opacity="1" d="M 1192.929688 285.148438 L 1559.601562 642.859375 L 1524.121094 679.339844 L 1157.449219 321.621094 L 1192.929688 285.148438 " style="fill: rgb(241, 245, 249);" transform="matrix(1, 0, 0, 1, -3.552713678800501e-15, 0)"/>
  <path fill-rule="evenodd" fill-opacity="1" d="M 546.683594 435.730469 L 1054.429688 435.730469 C 1069.898438 435.730469 1082.558594 448.390625 1082.558594 463.859375 C 1082.558594 479.328125 1069.898438 491.980469 1054.429688 491.980469 L 546.683594 491.980469 C 531.214844 491.980469 518.558594 479.328125 518.558594 463.859375 C 518.558594 448.390625 531.214844 435.730469 546.683594 435.730469 " style="fill: rgb(185, 185, 185);" transform="matrix(1, 0, 0, 1, -3.552713678800501e-15, 0)"/>
  <path fill-rule="evenodd" fill-opacity="1" d="M 546.683594 635.730469 L 1054.429688 635.730469 C 1069.898438 635.730469 1082.558594 648.390625 1082.558594 663.859375 C 1082.558594 679.328125 1069.898438 691.980469 1054.429688 691.980469 L 546.683594 691.980469 C 531.214844 691.980469 518.558594 679.328125 518.558594 663.859375 C 518.558594 648.390625 531.214844 635.730469 546.683594 635.730469 " style="fill: rgb(185, 185, 185);" transform="matrix(1, 0, 0, 1, -3.552713678800501e-15, 0)"/>
  <path fill-rule="evenodd" fill-opacity="1" d="M 546.683594 835.730469 L 1409.738281 835.730469 C 1425.210938 835.730469 1437.871094 848.390625 1437.871094 863.859375 C 1437.871094 879.328125 1425.210938 891.980469 1409.738281 891.980469 L 546.683594 891.980469 C 531.214844 891.980469 518.558594 879.328125 518.558594 863.859375 C 518.558594 848.390625 531.214844 835.730469 546.683594 835.730469 " style="fill: rgb(185, 185, 185);" transform="matrix(1, 0, 0, 1, -3.552713678800501e-15, 0)"/>
  <path fill-rule="evenodd" fill-opacity="1" d="M 546.683594 1035.730469 L 1405.988281 1035.730469 C 1421.460938 1035.730469 1434.121094 1048.386719 1434.121094 1063.855469 C 1434.121094 1079.328125 1421.460938 1091.984375 1405.988281 1091.984375 L 546.683594 1091.984375 C 531.214844 1091.984375 518.558594 1079.328125 518.558594 1063.855469 C 518.558594 1048.386719 531.214844 1035.730469 546.683594 1035.730469 " style="fill: rgb(185, 185, 185);" transform="matrix(1, 0, 0, 1, -3.552713678800501e-15, 0)"/>
  <path fill-rule="evenodd" fill-opacity="1" d="M 546.683594 1235.730469 L 1183.988281 1235.730469 C 1199.460938 1235.730469 1212.121094 1248.390625 1212.121094 1263.855469 L 1212.121094 1263.859375 C 1212.121094 1279.328125 1199.460938 1291.984375 1183.988281 1291.984375 L 546.683594 1291.984375 C 531.214844 1291.984375 518.558594 1279.328125 518.558594 1263.859375 L 518.558594 1263.855469 C 518.558594 1248.390625 531.214844 1235.730469 546.683594 1235.730469 " style="fill: rgb(185, 185, 185);" transform="matrix(1, 0, 0, 1, -3.552713678800501e-15, 0)"/>
  <path fill-rule="evenodd" fill-opacity="1" d="M 546.683594 1435.730469 L 1054.429688 1435.730469 C 1069.898438 1435.730469 1082.558594 1448.390625 1082.558594 1463.855469 L 1082.558594 1463.859375 C 1082.558594 1479.328125 1069.898438 1491.984375 1054.429688 1491.984375 L 546.683594 1491.984375 C 531.214844 1491.984375 518.558594 1479.328125 518.558594 1463.859375 L 518.558594 1463.855469 C 518.558594 1448.390625 531.214844 1435.730469 546.683594 1435.730469 " style="fill: rgb(185, 185, 185);" transform="matrix(1, 0, 0, 1, -3.552713678800501e-15, 0)"/>
  <path fill-rule="evenodd" fill-opacity="1" d="M 1550.058594 1600.617188 C 1584.761719 1594.335938 1596.71875 1642.566406 1562.621094 1652.785156 C 1548.480469 1657.023438 1533.710938 1647.078125 1530.21875 1633.238281 C 1526.671875 1619.136719 1535.980469 1603.164062 1550.058594 1600.617188 Z M 1548.179688 1336.671875 C 1556.589844 1333.539062 1568.011719 1336.875 1574.460938 1342.921875 C 1582.429688 1350.386719 1582.910156 1357.109375 1582.878906 1367.3125 C 1582.820312 1389.308594 1582.871094 1411.316406 1582.871094 1433.3125 C 1582.871094 1444.28125 1584.328125 1523.476562 1581.339844 1530.566406 C 1578.558594 1537.179688 1571.300781 1544.683594 1564.289062 1546.609375 C 1542.628906 1552.570312 1529.121094 1536.9375 1529.25 1516.238281 L 1529.269531 1384.269531 C 1529.269531 1364.828125 1525.921875 1344.957031 1548.179688 1336.671875 Z M 1552.710938 1249.257812 C 1518.691406 1252.1875 1506.898438 1283.726562 1492.199219 1309.503906 L 1315.828125 1617.371094 C 1307.039062 1632.601562 1299.980469 1644.675781 1303.050781 1663.167969 C 1305.589844 1678.429688 1314.550781 1691.367188 1327.890625 1699.117188 C 1344.109375 1708.546875 1363.488281 1706.078125 1381.488281 1706.070312 L 1562.53125 1705.441406 C 1602.601562 1705.441406 1642.890625 1705.867188 1682.929688 1705.414062 C 1703.148438 1705.183594 1723.398438 1704.886719 1743.621094 1705.113281 C 1762.371094 1705.324219 1777.371094 1705.976562 1793.230469 1694.289062 C 1806.410156 1684.578125 1813.269531 1669.808594 1813.300781 1653.558594 C 1813.328125 1635.40625 1805.109375 1624.519531 1796.488281 1609.574219 C 1737.949219 1508.128906 1677.640625 1404.511719 1618.261719 1303.578125 C 1602.640625 1277.015625 1589.988281 1246.046875 1552.710938 1249.257812 " style="fill: rgb(241, 245, 249);" transform="matrix(1, 0, 0, 1, -3.552713678800501e-15, 0)"/>
  <path fill-rule="evenodd" fill-opacity="1" d="M 1552.710938 1249.257812 C 1589.988281 1246.046875 1602.640625 1277.015625 1618.261719 1303.578125 C 1677.640625 1404.511719 1737.949219 1508.128906 1796.488281 1609.574219 C 1805.109375 1624.519531 1813.328125 1635.40625 1813.300781 1653.558594 C 1813.269531 1669.808594 1806.410156 1684.578125 1793.230469 1694.289062 C 1777.371094 1705.976562 1762.371094 1705.324219 1743.621094 1705.113281 C 1723.398438 1704.886719 1703.148438 1705.183594 1682.929688 1705.414062 C 1642.890625 1705.867188 1602.601562 1705.441406 1562.53125 1705.441406 L 1381.488281 1706.070312 C 1363.488281 1706.078125 1344.109375 1708.546875 1327.890625 1699.117188 C 1314.550781 1691.367188 1305.589844 1678.429688 1303.050781 1663.167969 C 1299.980469 1644.675781 1307.039062 1632.601562 1315.828125 1617.371094 L 1492.199219 1309.503906 C 1506.898438 1283.726562 1518.691406 1252.1875 1552.710938 1249.257812 Z M 1666.429688 1278.003906 C 1663.28125 1275.777344 1651.019531 1252.804688 1647.640625 1247.453125 C 1640.421875 1236.015625 1634.910156 1230.066406 1624.921875 1221.136719 C 1607.691406 1205.726562 1575.691406 1194.816406 1551.820312 1197.15625 C 1515.210938 1200.230469 1485.28125 1215.382812 1465.671875 1247.296875 C 1448.761719 1274.84375 1432.289062 1305.210938 1416.328125 1333.519531 C 1383.960938 1390.9375 1350.859375 1448.242188 1317.988281 1505.394531 C 1301.5 1534.074219 1285.308594 1563.007812 1268.621094 1591.558594 C 1248.210938 1626.476562 1242.039062 1659 1259.308594 1697.246094 C 1272.898438 1727.34375 1301.460938 1751.25 1333.910156 1758.175781 C 1350.320312 1761.675781 1382.121094 1759.730469 1400.210938 1759.730469 L 1602.660156 1759.730469 C 1647.648438 1759.730469 1693.289062 1758.964844 1738.191406 1759.6875 C 1777.628906 1760.324219 1810.21875 1754.347656 1837.941406 1723.835938 C 1862.769531 1696.492188 1873.71875 1657.886719 1862.441406 1622.15625 C 1855.820312 1601.203125 1827.449219 1555.574219 1814.871094 1534.125 L 1715.390625 1363.410156 C 1699.679688 1336.628906 1679.578125 1305.511719 1666.429688 1278.003906 " style="" transform="matrix(1, 0, 0, 1, -3.552713678800501e-15, 0)"/>
  <path fill-rule="evenodd" fill="rgb(0%, 0%, 0%)" fill-opacity="1" d="M 1548.179688 1336.671875 C 1525.921875 1344.957031 1529.269531 1364.828125 1529.269531 1384.269531 L 1529.25 1516.238281 C 1529.121094 1536.9375 1542.628906 1552.570312 1564.289062 1546.609375 C 1571.300781 1544.683594 1578.558594 1537.179688 1581.339844 1530.566406 C 1584.328125 1523.476562 1582.871094 1444.28125 1582.871094 1433.3125 C 1582.871094 1411.316406 1582.820312 1389.308594 1582.878906 1367.3125 C 1582.910156 1357.109375 1582.429688 1350.386719 1574.460938 1342.921875 C 1568.011719 1336.875 1556.589844 1333.539062 1548.179688 1336.671875 " transform="matrix(1, 0, 0, 1, -3.552713678800501e-15, 0)"/>
  <path fill-rule="evenodd" fill="rgb(0%, 0%, 0%)" fill-opacity="1" d="M 1550.058594 1600.617188 C 1535.980469 1603.164062 1526.671875 1619.136719 1530.21875 1633.238281 C 1533.710938 1647.078125 1548.480469 1657.023438 1562.621094 1652.785156 C 1596.71875 1642.566406 1584.761719 1594.335938 1550.058594 1600.617188 " transform="matrix(1, 0, 0, 1, -3.552713678800501e-15, 0)"/>
</svg>